{"asset":{"generator":"Khronos glTF Spline I/O v0.0.1","version":"2.0"},"scenes":[{"nodes":[0]}],"nodes":[{"name":"8-regions","children":[1,2]},{"name":"Map-8Regions","matrix":[1,0,0,0,0,1,0,0,0,0,1,0,-500,421,0,1],"children":[3,4,5,6,7,8,9,10]},{"name":"Default Camera","camera":0,"translation":[99.99413493393764,-46.006761159787274,1006.1740723443814],"rotation":[-0.005574436917485231,0.00631725853050663,0.00003521640908114921,0.9999645076989064],"children":[11]},{"name":"Untitled","matrix":[1,0,0,0,0,1,0,0,0,0,1,0,0,-0.0020000000004074536,0,1],"mesh":0},{"name":"Untitled","matrix":[1,0,0,0,0,1,0,0,0,0,1,0,251.682,-0.9760000000004074,0.01,1],"mesh":1},{"name":"Untitled","matrix":[1,0,0,0,0,1,0,0,0,0,1,0,102.987,-225.83300000000037,0.02,1],"mesh":2},{"name":"Untitled","matrix":[1,0,0,0,0,1,0,0,0,0,1,0,17.05,-548.4470000000005,0.03,1],"mesh":3},{"name":"Untitled","matrix":[1,0,0,0,0,1,0,0,0,0,1,0,487.9440000000001,-513.8060000000004,0.04,1],"mesh":4},{"name":"Untitled","matrix":[1,0,0,0,0,1,0,0,0,0,1,0,289.26500000000004,-521.2310000000002,0.05,1],"mesh":5},{"name":"Untitled","matrix":[1,0,0,0,0,1,0,0,0,0,1,0,482.18899999999985,-756.9170000000004,0.06,1],"mesh":6},{"name":"Untitled","matrix":[1,0,0,0,0,1,0,0,0,0,1,0,682.4,-509.3420000000004,0.07,1],"mesh":7},{"name":"Default Directional Light","translation":[850000,1300000,1000000],"rotation":[-0.45895513091666534,0.1367267597249462,-0.25064115022945466,0.8413352451859125],"extensions":{"KHR_lights_punctual":{"light":0}}}],"cameras":[{"type":"orthographic","orthographic":{"xmag":1680,"ymag":954,"zfar":50000,"znear":-50000}}],"meshes":[{"primitives":[{"attributes":{"POSITION":1,"NORMAL":2,"TEXCOORD_0":3},"indices":0}]},{"primitives":[{"attributes":{"POSITION":5,"NORMAL":6,"TEXCOORD_0":7},"indices":4}]},{"primitives":[{"attributes":{"POSITION":9,"NORMAL":10,"TEXCOORD_0":11},"indices":8}]},{"primitives":[{"attributes":{"POSITION":13,"NORMAL":14,"TEXCOORD_0":15},"indices":12}]},{"primitives":[{"attributes":{"POSITION":17,"NORMAL":18,"TEXCOORD_0":19},"indices":16}]},{"primitives":[{"attributes":{"POSITION":21,"NORMAL":22,"TEXCOORD_0":23},"indices":20}]},{"primitives":[{"attributes":{"POSITION":25,"NORMAL":26,"TEXCOORD_0":27},"indices":24}]},{"primitives":[{"attributes":{"POSITION":29,"NORMAL":30,"TEXCOORD_0":31},"indices":28}]}],"buffers":[{"uri":"data:application/octet-stream;base64,","byteLength":26112},{"uri":"data:application/octet-stream;base64,","byteLength":34752},{"uri":"data:application/octet-stream;base64,","byteLength":36048},{"uri":"data:application/octet-stream;base64,","byteLength":28800},{"uri":"data:application/octet-stream;base64,","byteLength":27072},{"uri":"data:application/octet-stream;base64,","byteLength":53568},{"uri":"data:application/octet-stream;base64,","byteLength":61008},{"uri":"data:application/octet-stream;base64,","byteLength":77904}],"bufferViews":[{"buffer":0,"byteOffset":0,"byteLength":2304,"target":34963},{"buffer":0,"byteOffset":2304,"byteLength":7936,"target":34962},{"buffer":0,"byteOffset":10240,"byteLength":7936,"target":34962},{"buffer":0,"byteOffset":18176,"byteLength":7936,"target":34962},{"buffer":1,"byteOffset":0,"byteLength":3072,"target":34963},{"buffer":1,"byteOffset":3072,"byteLength":10560,"target":34962},{"buffer":1,"byteOffset":13632,"byteLength":10560,"target":34962},{"buffer":1,"byteOffset":24192,"byteLength":10560,"target":34962},{"buffer":2,"byteOffset":0,"byteLength":3216,"target":34963},{"buffer":2,"byteOffset":3216,"byteLength":10944,"target":34962},{"buffer":2,"byteOffset":14160,"byteLength":10944,"target":34962},{"buffer":2,"byteOffset":25104,"byteLength":10944,"target":34962},{"buffer":3,"byteOffset":0,"byteLength":2688,"target":34963},{"buffer":3,"byteOffset":2688,"byteLength":8704,"target":34962},{"buffer":3,"byteOffset":11392,"byteLength":8704,"target":34962},{"buffer":3,"byteOffset":20096,"byteLength":8704,"target":34962},{"buffer":4,"byteOffset":0,"byteLength":2304,"target":34963},{"buffer":4,"byteOffset":2304,"byteLength":8256,"target":34962},{"buffer":4,"byteOffset":10560,"byteLength":8256,"target":34962},{"buffer":4,"byteOffset":18816,"byteLength":8256,"target":34962},{"buffer":5,"byteOffset":0,"byteLength":4800,"target":34963},{"buffer":5,"byteOffset":4800,"byteLength":16256,"target":34962},{"buffer":5,"byteOffset":21056,"byteLength":16256,"target":34962},{"buffer":5,"byteOffset":37312,"byteLength":16256,"target":34962},{"buffer":6,"byteOffset":0,"byteLength":5328,"target":34963},{"buffer":6,"byteOffset":5328,"byteLength":18560,"target":34962},{"buffer":6,"byteOffset":23888,"byteLength":18560,"target":34962},{"buffer":6,"byteOffset":42448,"byteLength":18560,"target":34962},{"buffer":7,"byteOffset":0,"byteLength":6864,"target":34963},{"buffer":7,"byteOffset":6864,"byteLength":23680,"target":34962},{"buffer":7,"byteOffset":30544,"byteLength":23680,"target":34962},{"buffer":7,"byteOffset":54224,"byteLength":23680,"target":34962}],"accessors":[{"bufferView":0,"byteOffset":0,"componentType":5125,"count":576,"type":"SCALAR","min":[0],"max":[247]},{"bufferView":1,"byteOffset":0,"componentType":5126,"count":248,"type":"VEC3","min":[0,-472.5639953613281,0],"max":[283.76800537109375,0,85]},{"bufferView":2,"byteOffset":0,"componentType":5126,"count":248,"type":"VEC3","min":[-0.9999913573265076,-1,-1],"max":[0.999998152256012,1,1]},{"bufferView":3,"byteOffset":0,"componentType":5126,"count":248,"type":"VEC2","min":[0,0],"max":[1,1]},{"bufferView":4,"byteOffset":0,"componentType":5125,"count":768,"type":"SCALAR","min":[0],"max":[329]},{"bufferView":5,"byteOffset":0,"componentType":5126,"count":330,"type":"VEC3","min":[0,-325.8380126953125,0],"max":[404.27801513671875,0,85]},{"bufferView":6,"byteOffset":0,"componentType":5126,"count":330,"type":"VEC3","min":[-0.9999987483024597,-0.9999973177909851,-1],"max":[1,1,1]},{"bufferView":7,"byteOffset":0,"componentType":5126,"count":330,"type":"VEC2","min":[0,0],"max":[1,1]},{"bufferView":8,"byteOffset":0,"componentType":5125,"count":804,"type":"SCALAR","min":[0],"max":[341]},{"bufferView":9,"byteOffset":0,"componentType":5126,"count":342,"type":"VEC3","min":[0,-330.9679870605469,0],"max":[470.6029968261719,0,85]},{"bufferView":10,"byteOffset":0,"componentType":5126,"count":342,"type":"VEC3","min":[-0.9997691512107849,-0.9999895691871643,-1],"max":[0.9999713897705078,0.9999985694885254,1]},{"bufferView":11,"byteOffset":0,"componentType":5126,"count":342,"type":"VEC2","min":[0,0],"max":[1,1]},{"bufferView":12,"byteOffset":0,"componentType":5125,"count":672,"type":"SCALAR","min":[0],"max":[271]},{"bufferView":13,"byteOffset":0,"componentType":5126,"count":272,"type":"VEC3","min":[0,-334.7340087890625,0],"max":[298.4880065917969,0,85]},{"bufferView":14,"byteOffset":0,"componentType":5126,"count":272,"type":"VEC3","min":[-0.9994197487831116,-0.9995290637016296,-1],"max":[1,1,1]},{"bufferView":15,"byteOffset":0,"componentType":5126,"count":272,"type":"VEC2","min":[0,0],"max":[1,1]},{"bufferView":16,"byteOffset":0,"componentType":5125,"count":576,"type":"SCALAR","min":[0],"max":[257]},{"bufferView":17,"byteOffset":0,"componentType":5126,"count":258,"type":"VEC3","min":[0,-245.09300231933594,0],"max":[318.97601318359375,0,85]},{"bufferView":18,"byteOffset":0,"componentType":5126,"count":258,"type":"VEC3","min":[-0.9999434947967529,-1,-1],"max":[0.9996494650840759,0.9999498128890991,1]},{"bufferView":19,"byteOffset":0,"componentType":5126,"count":258,"type":"VEC2","min":[0,0],"max":[1,1]},{"bufferView":20,"byteOffset":0,"componentType":5125,"count":1200,"type":"SCALAR","min":[0],"max":[507]},{"bufferView":21,"byteOffset":0,"componentType":5126,"count":508,"type":"VEC3","min":[0,-373.77398681640625,0],"max":[360.3840026855469,0,85]},{"bufferView":22,"byteOffset":0,"componentType":5126,"count":508,"type":"VEC3","min":[-1,-1,-1],"max":[1,1,1]},{"bufferView":23,"byteOffset":0,"componentType":5126,"count":508,"type":"VEC2","min":[0,0],"max":[1,1]},{"bufferView":24,"byteOffset":0,"componentType":5125,"count":1332,"type":"SCALAR","min":[0],"max":[579]},{"bufferView":25,"byteOffset":0,"componentType":5126,"count":580,"type":"VEC3","min":[0,-255.6060028076172,0],"max":[409.47100830078125,4.1219892501831055,85]},{"bufferView":26,"byteOffset":0,"componentType":5126,"count":580,"type":"VEC3","min":[-1,-0.9997724294662476,-1],"max":[1,1,1]},{"bufferView":27,"byteOffset":0,"componentType":5126,"count":580,"type":"VEC2","min":[0,0],"max":[1,1]},{"bufferView":28,"byteOffset":0,"componentType":5125,"count":1716,"type":"SCALAR","min":[0],"max":[739]},{"bufferView":29,"byteOffset":0,"componentType":5126,"count":740,"type":"VEC3","min":[-3.702369213104248,-497.7120056152344,0],"max":[441.4200134277344,0,85]},{"bufferView":30,"byteOffset":0,"componentType":5126,"count":740,"type":"VEC3","min":[-1,-1,-1],"max":[1,0.9999162554740906,1]},{"bufferView":31,"byteOffset":0,"componentType":5126,"count":740,"type":"VEC2","min":[0,0],"max":[1,1]}],"extensions":{"KHR_lights_punctual":{"lights":[{"type":"directional","name":"Default Directional Light","color":[1,1,1],"intensity":0.75}]}},"extensionsUsed":["KHR_lights_punctual"]}