{"asset":{"generator":"Khronos glTF Spline I/O v0.0.1","version":"2.0"},"scenes":[{"nodes":[0]}],"nodes":[{"name":"current-state","children":[1,2,3,4,5,6,7,8,9]},{"name":"svg-alt","matrix":[1,0,0,0,0,1,0,0,0,0,1,0,114,-477,0,1]},{"name":"Untitled","matrix":[1,0,0,0,0,1,0,0,0,0,1,0,114,-477.004,0,1],"mesh":0},{"name":"Untitled","matrix":[1,0,0,0,0,1,0,0,0,0,1,0,365.682,-477.98,0.01,1],"mesh":1},{"name":"Untitled","matrix":[1,0,0,0,0,1,0,0,0,0,1,0,216.987,-702.8369999999999,0.02,1],"mesh":2},{"name":"Untitled","matrix":[1,0,0,0,0,1,0,0,0,0,1,0,131.05,-1025.451,0.03,1],"mesh":3},{"name":"Untitled","matrix":[1,0,0,0,0,1,0,0,0,0,1,0,601.9390000000002,-992.2310000000002,0.04,1],"mesh":4},{"name":"Untitled","matrix":[1,0,0,0,0,1,0,0,0,0,1,0,596.1909999999998,-986.346,0.05,1],"mesh":5},{"name":"Untitled","matrix":[1,0,0,0,0,1,0,0,0,0,1,0,403.265,-998.235,0.06,1],"mesh":6},{"name":"Default Camera","camera":0,"translation":[347.6240392668077,-576.8994964657237,791.16036790013],"rotation":[-0.29190513428951514,-0.19194570407915446,-0.05992051582562401,0.9350709978628196],"children":[10]},{"name":"Default Directional Light","translation":[850000,1300000,1000000],"rotation":[-0.45895513091666534,0.1367267597249462,-0.25064115022945466,0.8413352451859125],"extensions":{"KHR_lights_punctual":{"light":0}}}],"cameras":[{"type":"orthographic","orthographic":{"xmag":1680,"ymag":958,"zfar":50000,"znear":-50000}}],"meshes":[{"primitives":[{"attributes":{"POSITION":1,"NORMAL":2,"TEXCOORD_0":3},"indices":0}]},{"primitives":[{"attributes":{"POSITION":5,"NORMAL":6,"TEXCOORD_0":7},"indices":4}]},{"primitives":[{"attributes":{"POSITION":9,"NORMAL":10,"TEXCOORD_0":11},"indices":8}]},{"primitives":[{"attributes":{"POSITION":13,"NORMAL":14,"TEXCOORD_0":15},"indices":12}]},{"primitives":[{"attributes":{"POSITION":17,"NORMAL":18,"TEXCOORD_0":19},"indices":16}]},{"primitives":[{"attributes":{"POSITION":21,"NORMAL":22,"TEXCOORD_0":23},"indices":20}]},{"primitives":[{"attributes":{"POSITION":25,"NORMAL":26,"TEXCOORD_0":27},"indices":24}]}],"buffers":[{"uri":"data:application/octet-stream;base64,","byteLength":26112},{"uri":"data:application/octet-stream;base64,","byteLength":34752},{"uri":"data:application/octet-stream;base64,","byteLength":36048},{"uri":"data:application/octet-stream;base64,","byteLength":28416},{"uri":"data:application/octet-stream;base64,","byteLength":34176},{"uri":"data:application/octet-stream;base64,","byteLength":136608},{"uri":"data:application/octet-stream;base64,","byteLength":54000}],"bufferViews":[{"buffer":0,"byteOffset":0,"byteLength":2304,"target":34963},{"buffer":0,"byteOffset":2304,"byteLength":7936,"target":34962},{"buffer":0,"byteOffset":10240,"byteLength":7936,"target":34962},{"buffer":0,"byteOffset":18176,"byteLength":7936,"target":34962},{"buffer":1,"byteOffset":0,"byteLength":3072,"target":34963},{"buffer":1,"byteOffset":3072,"byteLength":10560,"target":34962},{"buffer":1,"byteOffset":13632,"byteLength":10560,"target":34962},{"buffer":1,"byteOffset":24192,"byteLength":10560,"target":34962},{"buffer":2,"byteOffset":0,"byteLength":3216,"target":34963},{"buffer":2,"byteOffset":3216,"byteLength":10944,"target":34962},{"buffer":2,"byteOffset":14160,"byteLength":10944,"target":34962},{"buffer":2,"byteOffset":25104,"byteLength":10944,"target":34962},{"buffer":3,"byteOffset":0,"byteLength":2688,"target":34963},{"buffer":3,"byteOffset":2688,"byteLength":8576,"target":34962},{"buffer":3,"byteOffset":11264,"byteLength":8576,"target":34962},{"buffer":3,"byteOffset":19840,"byteLength":8576,"target":34962},{"buffer":4,"byteOffset":0,"byteLength":3072,"target":34963},{"buffer":4,"byteOffset":3072,"byteLength":10368,"target":34962},{"buffer":4,"byteOffset":13440,"byteLength":10368,"target":34962},{"buffer":4,"byteOffset":23808,"byteLength":10368,"target":34962},{"buffer":5,"byteOffset":0,"byteLength":12192,"target":34963},{"buffer":5,"byteOffset":12192,"byteLength":41472,"target":34962},{"buffer":5,"byteOffset":53664,"byteLength":41472,"target":34962},{"buffer":5,"byteOffset":95136,"byteLength":41472,"target":34962},{"buffer":6,"byteOffset":0,"byteLength":4848,"target":34963},{"buffer":6,"byteOffset":4848,"byteLength":16384,"target":34962},{"buffer":6,"byteOffset":21232,"byteLength":16384,"target":34962},{"buffer":6,"byteOffset":37616,"byteLength":16384,"target":34962}],"accessors":[{"bufferView":0,"byteOffset":0,"componentType":5125,"count":576,"type":"SCALAR","min":[0],"max":[247]},{"bufferView":1,"byteOffset":0,"componentType":5126,"count":248,"type":"VEC3","min":[0,-472.5660095214844,0],"max":[283.76800537109375,0,59]},{"bufferView":2,"byteOffset":0,"componentType":5126,"count":248,"type":"VEC3","min":[-0.9999916553497314,-1,-1],"max":[0.9999983310699463,1,1]},{"bufferView":3,"byteOffset":0,"componentType":5126,"count":248,"type":"VEC2","min":[0,0],"max":[1,1]},{"bufferView":4,"byteOffset":0,"componentType":5125,"count":768,"type":"SCALAR","min":[0],"max":[329]},{"bufferView":5,"byteOffset":0,"componentType":5126,"count":330,"type":"VEC3","min":[0,-325.83599853515625,0],"max":[404.27801513671875,0,59]},{"bufferView":6,"byteOffset":0,"componentType":5126,"count":330,"type":"VEC3","min":[-0.9999987483024597,-0.9999973177909851,-1],"max":[1,1,1]},{"bufferView":7,"byteOffset":0,"componentType":5126,"count":330,"type":"VEC2","min":[0,0],"max":[1,1]},{"bufferView":8,"byteOffset":0,"componentType":5125,"count":804,"type":"SCALAR","min":[0],"max":[341]},{"bufferView":9,"byteOffset":0,"componentType":5126,"count":342,"type":"VEC3","min":[0,-330.96600341796875,0],"max":[470.6029968261719,0,59]},{"bufferView":10,"byteOffset":0,"componentType":5126,"count":342,"type":"VEC3","min":[-0.9997691512107849,-0.9999895691871643,-1],"max":[0.9999713897705078,0.9999985694885254,1]},{"bufferView":11,"byteOffset":0,"componentType":5126,"count":342,"type":"VEC2","min":[0,0],"max":[1,1]},{"bufferView":12,"byteOffset":0,"componentType":5125,"count":672,"type":"SCALAR","min":[0],"max":[267]},{"bufferView":13,"byteOffset":0,"componentType":5126,"count":268,"type":"VEC3","min":[0,-334.7340087890625,0],"max":[298.4880065917969,0,59]},{"bufferView":14,"byteOffset":0,"componentType":5126,"count":268,"type":"VEC3","min":[-0.9994197487831116,-0.9995290637016296,-1],"max":[1,0.9999902844429016,1]},{"bufferView":15,"byteOffset":0,"componentType":5126,"count":268,"type":"VEC2","min":[0,0],"max":[1,1]},{"bufferView":16,"byteOffset":0,"componentType":5125,"count":768,"type":"SCALAR","min":[0],"max":[323]},{"bufferView":17,"byteOffset":0,"componentType":5126,"count":324,"type":"VEC3","min":[0,-249.9040069580078,0],"max":[260.2300109863281,0,59]},{"bufferView":18,"byteOffset":0,"componentType":5126,"count":324,"type":"VEC3","min":[-0.9999434947967529,-1,-1],"max":[0.9999479055404663,0.9999498128890991,1]},{"bufferView":19,"byteOffset":0,"componentType":5126,"count":324,"type":"VEC2","min":[0,0],"max":[1,1]},{"bufferView":20,"byteOffset":0,"componentType":5125,"count":3048,"type":"SCALAR","min":[0],"max":[1295]},{"bufferView":21,"byteOffset":0,"componentType":5126,"count":1296,"type":"VEC3","min":[0,-503.17999267578125,0],"max":[641.6320190429688,0,59]},{"bufferView":22,"byteOffset":0,"componentType":5126,"count":1296,"type":"VEC3","min":[-1,-0.9999828934669495,-1],"max":[1,1,1]},{"bufferView":23,"byteOffset":0,"componentType":5126,"count":1296,"type":"VEC2","min":[0,0],"max":[1,1]},{"bufferView":24,"byteOffset":0,"componentType":5125,"count":1212,"type":"SCALAR","min":[0],"max":[511]},{"bufferView":25,"byteOffset":0,"componentType":5126,"count":512,"type":"VEC3","min":[0,-373.7720031738281,0],"max":[360.3840026855469,0,59]},{"bufferView":26,"byteOffset":0,"componentType":5126,"count":512,"type":"VEC3","min":[-1,-1,-1],"max":[1,1,1]},{"bufferView":27,"byteOffset":0,"componentType":5126,"count":512,"type":"VEC2","min":[0,0],"max":[1,1]}],"extensions":{"KHR_lights_punctual":{"lights":[{"type":"directional","name":"Default Directional Light","color":[1,1,1],"intensity":0.75}]}},"extensionsUsed":["KHR_lights_punctual"]}